<?xml version="1.0" encoding="UTF-8"?>
<svg version="1.1" xmlns="http://www.w3.org/2000/svg" width="1024" height="1024">
<path d="M0 0 C337.92 0 675.84 0 1024 0 C1024 337.92 1024 675.84 1024 1024 C686.08 1024 348.16 1024 0 1024 C0 686.08 0 348.16 0 0 Z " fill="#1E6D96" transform="translate(0,0)"/>
<path d="M0 0 C337.92 0 675.84 0 1024 0 C1024 337.92 1024 675.84 1024 1024 C686.08 1024 348.16 1024 0 1024 C0 686.08 0 348.16 0 0 Z M120 152 C96.47069383 179.46334621 88.34040626 212.28608808 88.49879456 247.67591858 C88.49489383 250.11327403 88.48924724 252.55062719 88.48202366 254.98797506 C88.47040942 260.25200194 88.47099946 265.51587551 88.48280334 270.77989578 C88.50030825 278.60807077 88.49464164 286.43611478 88.48463643 294.26429688 C88.46750679 308.25124374 88.47294547 322.23811184 88.48799362 336.22505701 C88.50107651 348.46507714 88.50623538 360.70507004 88.50367546 372.94509697 C88.50351505 373.75890941 88.50335463 374.57272184 88.50318935 375.41119526 C88.5025257 378.71521432 88.50182328 382.01923336 88.50106401 385.3232524 C88.49404969 416.2782575 88.50949882 447.23321467 88.53568747 478.18820757 C88.55880241 505.65551605 88.56418885 533.12277188 88.55395508 560.59008789 C88.5513528 567.62552672 88.54876771 574.66096556 88.54635715 581.69640446 C88.54605971 582.56270587 88.54576226 583.42900729 88.5454558 584.32156026 C88.53783152 607.31313615 88.54426145 630.30470778 88.55505317 653.29628175 C88.55620091 655.77180516 88.55734409 658.24732856 88.55848 660.72285197 C88.55923524 662.36485581 88.56000089 664.00685963 88.56077701 665.64886346 C88.56642205 677.8781934 88.5651144 690.10750969 88.56054878 702.33683968 C88.55542846 716.24921917 88.5613493 730.16154776 88.58144308 744.07391459 C88.59238488 751.84852346 88.59526421 759.62303218 88.58615455 767.39764399 C88.58028045 773.21802833 88.59024533 779.03830295 88.6061542 784.85866456 C88.61017543 787.20158937 88.60923828 789.54452949 88.60263533 791.88744844 C88.55854894 809.00529922 89.51218948 825.73507927 94.6875 842.1875 C94.94241211 843.0115332 95.19732422 843.83556641 95.45996094 844.68457031 C98.12182259 852.92457455 101.71736395 860.48989732 106 868 C106.38172363 868.67546875 106.76344727 869.3509375 107.15673828 870.046875 C112.13048724 878.72595478 117.58601361 886.26721811 124.5546875 893.44921875 C127 896 127 896 129.01953125 898.5703125 C139.850138 911.85756575 161.71890199 926.0323454 178.703125 928.61328125 C182.61757389 929.27234663 186.26797917 930.68013898 190 932 C191.64504655 932.54405145 193.29086759 933.08576734 194.9375 933.625 C197.06199488 934.32192425 198.99926081 934.99963041 201 936 C202.94448203 935.96812325 204.88955766 935.93377381 206.83203125 935.83984375 C209 936 209 936 211.00602967 936.99218464 C215.35924699 938.45754294 219.50700232 938.29116619 224.0714941 938.28520203 C225.09960017 938.29170407 226.12770624 938.29820611 227.18696705 938.30490518 C230.65436886 938.32433397 234.1216458 938.32949257 237.58909607 938.3347168 C240.09131594 938.34560798 242.59353229 938.35733473 245.09574467 938.36982822 C251.26589569 938.39823432 257.43601705 938.41717224 263.60621374 938.43200562 C268.73799809 938.44465714 273.86974929 938.46197876 279.00150871 938.48232269 C279.74189322 938.48525669 280.48227773 938.48819069 281.24509814 938.4912136 C282.75510978 938.49721483 284.26512138 938.50322331 285.77513296 938.50923891 C305.3345845 938.58629797 324.89408871 938.63631026 344.45363579 938.68159312 C346.98789037 938.68748094 349.52214472 938.69346102 352.05639902 938.69946909 C384.29956144 938.77577566 416.54274306 938.84279067 448.78596806 938.88598739 C456.98190558 938.8969754 465.17784254 938.90837459 473.3737793 938.91992188 C474.2793986 938.92118673 475.1850179 938.92245158 476.1180802 938.92375477 C505.47613061 938.96511017 534.83373849 939.05704221 564.19156412 939.17722724 C594.37643621 939.30057274 624.56107128 939.37841455 654.74619922 939.39699388 C659.01071684 939.39962731 663.27523398 939.40275121 667.53975105 939.40615845 C668.79866966 939.40713483 668.79866966 939.40713483 670.08302096 939.40813094 C683.58236655 939.41987761 697.08110651 939.47899664 710.58022252 939.55557089 C724.15356772 939.63146901 737.72624432 939.65583834 751.29977977 939.62804568 C759.3606162 939.61306505 767.4191331 939.63687699 775.47959818 939.71689202 C781.50489817 939.77237134 787.52765466 939.75433993 793.55312944 939.70815909 C795.98596801 939.70086526 798.41901863 939.71716032 800.85149579 939.75972211 C815.83286794 940.22018827 815.83286794 940.22018827 828.43053863 933.11732775 C830.66685129 930.74681036 832.71499501 928.29378696 834.67341519 925.68994057 C835.96983534 924.03842686 837.34204377 922.62127908 838.86042207 921.17459774 C841.23378127 919.27083951 841.23378127 919.27083951 841 917 C841.86963379 916.8616272 841.86963379 916.8616272 842.75683594 916.72045898 C845.54511691 915.82491946 846.8299208 914.54282026 848.890625 912.47265625 C849.59960938 911.76302734 850.30859375 911.05339844 851.0390625 910.32226562 C851.76867187 909.57654297 852.49828125 908.83082031 853.25 908.0625 C853.99507812 907.32064453 854.74015625 906.57878906 855.5078125 905.81445312 C859.43214862 902.46581998 859.43214862 902.46581998 861 898 C861.54398438 897.95875 862.08796875 897.9175 862.6484375 897.875 C866.1998893 896.55352956 868.2117419 893.80041181 870.625 891 C875.78381148 885.10809426 875.78381148 885.10809426 878 884 C878 883.34 878 882.68 878 882 C878.99 881.67 879.98 881.34 881 881 C881.33 880.34 881.66 879.68 882 879 C882.680625 878.62875 883.36125 878.2575 884.0625 877.875 C888.26100692 875.19510197 891.76282509 871.78339798 895 868 C895 867.34 895 866.68 895 866 C895.556875 865.7525 896.11375 865.505 896.6875 865.25 C899.42410913 863.77075182 901.67650869 862.06532561 904 860 C904 859.34 904 858.68 904 858 C904.5775 857.7525 905.155 857.505 905.75 857.25 C908.34375315 855.80902603 909.96552222 854.15777947 912 852 C912.86625 851.175 913.7325 850.35 914.625 849.5 C917.04022445 847.21901979 917.04022445 847.21901979 918.0625 844.75 C919 843 919 843 921.125 842.25 C922.053125 842.12625 922.053125 842.12625 923 842 C923 841.34 923 840.68 923 840 C923.556875 839.773125 924.11375 839.54625 924.6875 839.3125 C927.63296499 837.6407496 929.64324185 835.41718785 932 833 C932.99 832.34 933.98 831.68 935 831 C935.45140796 829.11182784 935.45140796 829.11182784 935.37604749 826.90175068 C935.38355805 826.03659661 935.3910686 825.17144254 935.39880675 824.28007168 C935.39178325 823.32201801 935.38475975 822.36396434 935.37752342 821.37687874 C935.38188374 820.36078527 935.38624407 819.34469181 935.39073652 818.29780763 C935.4017867 814.85303945 935.39122528 811.40866374 935.38095093 807.96389771 C935.3844037 805.48504393 935.38916569 803.00619168 935.39513266 800.52734268 C935.40508911 795.11685576 935.40561946 789.7064873 935.39799118 784.29600525 C935.38667744 776.24970245 935.39242772 768.20347579 935.4016161 760.15717356 C935.41744679 745.78420416 935.41602995 731.41127466 935.40737936 717.03830143 C935.39983967 704.44922461 935.39785926 691.86016244 935.4014473 679.27108383 C935.40167645 678.43677035 935.40190561 677.60245687 935.40214171 676.74286116 C935.40307572 673.35611238 935.40403091 669.9693636 935.405021 666.58261484 C935.41420826 634.77664592 935.40586412 602.97070242 935.38973031 571.16473742 C935.37551592 542.92833342 935.37674642 514.69197004 935.39111328 486.45556641 C935.4071985 454.73581598 935.41353323 423.01608809 935.40427649 391.29633415 C935.40331437 387.91008942 935.40237584 384.52384468 935.4014473 381.13759995 C935.40121006 380.30381852 935.40097283 379.47003709 935.40072841 378.61098955 C935.39732245 366.04458951 935.40129527 353.47820579 935.40888596 340.91180801 C935.41748621 326.60267046 935.41527268 312.2935791 935.39904372 297.98444726 C935.39026987 289.98573867 935.3896086 281.98713024 935.40098225 273.98842438 C935.40855569 267.9986892 935.40027144 262.00908207 935.38605852 256.01935457 C935.3827284 253.60857806 935.38436452 251.19778803 935.39168589 248.78702034 C935.4411526 231.13345646 934.91652158 213.25294094 928.9375 196.4375 C928.64222412 195.58236816 928.34694824 194.72723633 928.04272461 193.84619141 C921.83227459 176.61413386 912.43424574 161.61692324 900.01171875 148.203125 C898 146 898 146 895.625 142.9375 C874.45057067 119.24230528 839.92045559 106.1558286 809 104 C800.7929254 103.65491815 792.57629511 103.72062186 784.36372375 103.73257446 C781.90619826 103.72883153 779.44867396 103.72422746 776.99115151 103.71884382 C771.67678441 103.70920902 766.36246723 103.70568794 761.0480957 103.70775604 C753.14478836 103.71082402 745.24152084 103.70244267 737.33822127 103.69200679 C722.39715237 103.67272733 707.45609726 103.66704087 692.51501737 103.66589268 C680.97244907 103.66497147 669.42988612 103.66084377 657.88731956 103.65449142 C654.55760756 103.65269618 651.22789554 103.65091655 647.89818352 103.64914167 C646.65631698 103.64847852 646.65631698 103.64847852 645.38936222 103.64780198 C622.12192992 103.63550453 598.85449948 103.62759976 575.58706379 103.62848854 C574.71094739 103.6285197 573.83483098 103.62855086 572.9321656 103.62858296 C568.49224024 103.62874916 564.05231489 103.62894724 559.61238954 103.62915237 C558.73069716 103.62919226 557.84900477 103.62923215 556.94059444 103.62927325 C555.15760058 103.62935413 553.37460673 103.62943772 551.59161287 103.62952404 C523.85605753 103.63074932 496.12055111 103.61573589 468.38500977 103.58837891 C437.18187138 103.5576139 405.97876513 103.54044901 374.77561063 103.54230535 C371.44432684 103.5424546 368.11304305 103.54255202 364.78175926 103.54261398 C363.96158931 103.54263729 363.14141936 103.5426606 362.29639578 103.54268462 C349.13733147 103.54274598 335.97830988 103.53001229 322.81925825 103.51274945 C309.58018597 103.49574155 296.34117575 103.49385938 283.10209856 103.5069681 C275.25276284 103.51432248 267.40361647 103.51080526 259.55430107 103.49108342 C253.67112266 103.47755952 247.78808957 103.48528885 241.90491237 103.50082986 C239.54166393 103.50388256 237.17839457 103.50033356 234.8151708 103.48910971 C189.43096238 103.28802194 150.76764251 117.88453642 120 152 Z " fill="#FDFDFD" transform="translate(0,0)"/>
<path d="M0 0 C1.14210938 0.46535156 2.28421875 0.93070312 3.4609375 1.41015625 C16.19481707 6.73401726 30.01035078 13.22692854 40 23 C40 23.66 40 24.32 40 25 C48.29923309 25.30283198 56.22643471 24.28376057 64.40185547 23.02856445 C66.59883348 22.69151434 68.79720049 22.36530929 70.99609375 22.04101562 C79.6156685 20.75404932 88.17142284 19.25701829 96.72021484 17.56176758 C100 17 100 17 104 17 C103.37489622 23.154868 101.61075637 28.65873398 99.62109375 34.5 C98.94051958 36.54158813 98.26018841 38.58325729 97.58007812 40.625 C96.50844217 43.81901108 95.43349342 47.01184192 94.35375977 50.203125 C93.30880983 53.29913173 92.2767727 56.39921834 91.24609375 59.5 C90.7586393 60.9221582 90.7586393 60.9221582 90.26133728 62.37304688 C88.42014337 67.93741642 86.68421989 73.25031869 88.71508789 79.0378418 C89.04758545 79.58609619 89.38008301 80.13435059 89.72265625 80.69921875 C90.09293945 81.34012451 90.46322266 81.98103027 90.84472656 82.64135742 C91.2465918 83.31658447 91.64845703 83.99181152 92.0625 84.6875 C113.01798957 122.21965841 116.47964169 170.93535928 105.53759766 212.02270508 C98.00414761 238.40486976 85.3023026 262.59212277 67 283 C66.24976563 283.87140625 65.49953125 284.7428125 64.7265625 285.640625 C46.39309023 306.68771591 23.44454804 321.35383896 -2.07324219 332.17626953 C-3.61280903 332.83446752 -5.14062139 333.52013673 -6.6640625 334.21484375 C-15.31246977 338.01953176 -24.79387344 340.00656764 -34 342 C-34.84868652 342.19126465 -35.69737305 342.3825293 -36.57177734 342.57958984 C-46.58768139 344.5614791 -56.7068064 344.39559398 -66.875 344.375 C-68.31247589 344.37468277 -68.31247589 344.37468277 -69.7789917 344.37435913 C-83.89497925 344.34320681 -97.30819773 343.69850115 -111 340 C-112.45817196 339.64516952 -113.91650383 339.29099548 -115.375 338.9375 C-145.72609462 331.1603131 -172.66707454 313.51586722 -195 292 C-195.70125 291.3503125 -196.4025 290.700625 -197.125 290.03125 C-203.4886865 283.97548382 -208.77823596 277.03770753 -214 270 C-214.42571289 269.42926758 -214.85142578 268.85853516 -215.29003906 268.27050781 C-236.4245809 239.50175305 -247.46821268 202.77875686 -247.26074219 167.24145508 C-247.25002508 165.06758647 -247.26070922 162.89454692 -247.2734375 160.72070312 C-247.30330872 131.93744657 -239.61168977 105.21796118 -226 80 C-225.45859375 78.97777344 -224.9171875 77.95554687 -224.359375 76.90234375 C-216.78954756 63.25093165 -206.81213014 51.18777817 -196 40 C-194.84371094 38.78376953 -194.84371094 38.78376953 -193.6640625 37.54296875 C-173.31220999 16.58413116 -146.85968794 2.0882965 -119 -6 C-118.13117188 -6.28617187 -117.26234375 -6.57234375 -116.3671875 -6.8671875 C-79.19205731 -19.09087438 -35.70310234 -14.61064456 0 0 Z " fill="#195379" transform="translate(580,270)"/>
<path d="M0 0 C1.14210938 0.46535156 2.28421875 0.93070312 3.4609375 1.41015625 C16.19481707 6.73401726 30.01035078 13.22692854 40 23 C40 23.66 40 24.32 40 25 C48.29923309 25.30283198 56.22643471 24.28376057 64.40185547 23.02856445 C66.59883348 22.69151434 68.79720049 22.36530929 70.99609375 22.04101562 C79.6156685 20.75404932 88.17142284 19.25701829 96.72021484 17.56176758 C100 17 100 17 104 17 C103.37489622 23.154868 101.61075637 28.65873398 99.62109375 34.5 C98.94051958 36.54158813 98.26018841 38.58325729 97.58007812 40.625 C96.50844217 43.81901108 95.43349342 47.01184192 94.35375977 50.203125 C93.30880983 53.29913173 92.2767727 56.39921834 91.24609375 59.5 C90.7586393 60.9221582 90.7586393 60.9221582 90.26133728 62.37304688 C88.42014337 67.93741642 86.68421989 73.25031869 88.71508789 79.0378418 C89.04758545 79.58609619 89.38008301 80.13435059 89.72265625 80.69921875 C90.09293945 81.34012451 90.46322266 81.98103027 90.84472656 82.64135742 C91.2465918 83.31658447 91.64845703 83.99181152 92.0625 84.6875 C113.01798957 122.21965841 116.47964169 170.93535928 105.53759766 212.02270508 C98.00414761 238.40486976 85.3023026 262.59212277 67 283 C66.24976563 283.87140625 65.49953125 284.7428125 64.7265625 285.640625 C46.39309023 306.68771591 23.44454804 321.35383896 -2.07324219 332.17626953 C-3.61280903 332.83446752 -5.14062139 333.52013673 -6.6640625 334.21484375 C-15.31246977 338.01953176 -24.79387344 340.00656764 -34 342 C-34.84868652 342.19126465 -35.69737305 342.3825293 -36.57177734 342.57958984 C-46.58768139 344.5614791 -56.7068064 344.39559398 -66.875 344.375 C-68.31247589 344.37468277 -68.31247589 344.37468277 -69.7789917 344.37435913 C-83.89497925 344.34320681 -97.30819773 343.69850115 -111 340 C-112.45817196 339.64516952 -113.91650383 339.29099548 -115.375 338.9375 C-145.72609462 331.1603131 -172.66707454 313.51586722 -195 292 C-195.70125 291.3503125 -196.4025 290.700625 -197.125 290.03125 C-203.4886865 283.97548382 -208.77823596 277.03770753 -214 270 C-214.42571289 269.42926758 -214.85142578 268.85853516 -215.29003906 268.27050781 C-236.4245809 239.50175305 -247.46821268 202.77875686 -247.26074219 167.24145508 C-247.25002508 165.06758647 -247.26070922 162.89454692 -247.2734375 160.72070312 C-247.30330872 131.93744657 -239.61168977 105.21796118 -226 80 C-225.45859375 78.97777344 -224.9171875 77.95554687 -224.359375 76.90234375 C-216.78954756 63.25093165 -206.81213014 51.18777817 -196 40 C-194.84371094 38.78376953 -194.84371094 38.78376953 -193.6640625 37.54296875 C-173.31220999 16.58413116 -146.85968794 2.0882965 -119 -6 C-118.13117188 -6.28617187 -117.26234375 -6.57234375 -116.3671875 -6.8671875 C-79.19205731 -19.09087438 -35.70310234 -14.61064456 0 0 Z M-179 56 C-179.67804688 56.62390625 -180.35609375 57.2478125 -181.0546875 57.890625 C-199.88702185 75.89100884 -211.86747628 100.24810184 -219 125 C-219.21317871 125.7105957 -219.42635742 126.42119141 -219.64599609 127.15332031 C-226.49453028 150.90866412 -225.26483956 180.28384824 -219 204 C-218.82339844 204.70205566 -218.64679688 205.40411133 -218.46484375 206.12744141 C-213.91245102 223.81011501 -205.84133207 240.36033416 -195 255 C-194.56961426 255.58974609 -194.13922852 256.17949219 -193.69580078 256.78710938 C-168.65551384 290.84264237 -131.73654031 312.37932012 -90 318.8125 C-60.05208641 322.89086891 -30.51140637 318.50214579 -3 306 C-2.39816895 305.72704102 -1.79633789 305.45408203 -1.17626953 305.17285156 C34.83228332 288.61824637 63.05169009 258.06583794 77.14453125 221.09375 C83.91916331 202.77983371 87.62405511 184.54808658 87.5 165 C87.49823761 164.24741913 87.49647522 163.49483826 87.49465942 162.7194519 C87.36110078 136.91340773 81.86437113 103.1694507 64.171875 82.90625 C63 81 63 81 63.1640625 78.1484375 C64.03686346 74.86115911 65.11318152 71.78336989 66.375 68.625 C67.04982422 66.91376953 67.04982422 66.91376953 67.73828125 65.16796875 C68.36283203 63.59982422 68.36283203 63.59982422 69 62 C71.56369 55.40932663 73.79419781 48.71817927 76 42 C65.38604239 42.18710502 55.46016983 43.97557987 45.12695312 46.36010742 C44.13244141 46.5841626 43.13792969 46.80821777 42.11328125 47.0390625 C40.77970581 47.35157959 40.77970581 47.35157959 39.41918945 47.67041016 C35.2443393 48.23919083 33.46377381 47.35096396 30.109375 44.8125 C28.98750109 43.87749275 27.86784162 42.93982432 26.75 42 C19.88229753 36.41851046 12.65957687 32.06354326 4.83398438 27.96386719 C3.19614479 27.10308568 1.57347455 26.21358212 -0.046875 25.3203125 C-59.79716376 -6.53550443 -131.55334423 11.84172631 -179 56 Z " fill="#2FBFD1" transform="translate(580,270)"/>
<path d="M0 0 C0.71739349 0.00370605 1.43478699 0.00741211 2.17391968 0.01123047 C31.56714072 0.22652659 63.18300713 10.54277536 84.6875 31.4375 C85.72119361 32.74488491 86.73419967 34.07038762 87.6875 35.4375 C82.1826591 37.77364016 76.61779402 39.87830725 70.9375 41.75 C69.89078125 42.09675781 68.8440625 42.44351563 67.765625 42.80078125 C63.51444 43.68015074 60.3525559 43.32831986 56.51171875 41.2734375 C55.80660156 40.79132813 55.10148438 40.30921875 54.375 39.8125 C49.74082894 36.89233741 44.99495011 34.74438109 39.9375 32.6875 C39.21651123 32.39407715 38.49552246 32.1006543 37.75268555 31.79833984 C35.73786815 30.99204024 33.71535748 30.21031796 31.6875 29.4375 C30.31851563 28.90382813 30.31851563 28.90382813 28.921875 28.359375 C19.44218181 25.65743346 10.06033759 25.12026753 0.25 25.1875 C-1.43706055 25.17589844 -1.43706055 25.17589844 -3.15820312 25.1640625 C-14.39163047 25.18987164 -25.10201381 26.45536061 -35.625 30.5 C-36.42478271 30.80236572 -37.22456543 31.10473145 -38.04858398 31.41625977 C-50.23896132 36.19228192 -61.59989284 42.60216058 -71.3125 51.4375 C-72.75882812 52.74460937 -72.75882812 52.74460937 -74.234375 54.078125 C-91.20580769 69.94031372 -104.05166864 93.55545813 -105.47363281 117.10620117 C-105.80147109 139.54596851 -104.01603948 157.10001138 -94.3125 177.4375 C-93.8278125 178.48808594 -93.343125 179.53867187 -92.84375 180.62109375 C-88.89833083 188.52340133 -83.21936303 194.95092996 -77.3125 201.4375 C-76.61898437 202.20320312 -75.92546875 202.96890625 -75.2109375 203.7578125 C-56.59743131 223.29050418 -29.62448097 234.08178656 -2.86865234 234.72924805 C22.81569793 234.96036913 46.90819161 226.88258211 66.6875 210.4375 C67.54859375 209.72851562 68.4096875 209.01953125 69.296875 208.2890625 C89.910711 190.55604209 101.8385855 166.29249603 104.6875 139.4375 C106.09209609 119.16605306 103.76842783 98.18565687 93.35498047 80.37255859 C92.43136624 77.69495569 92.8711208 76.12951877 93.6875 73.4375 C94.87084961 71.12573242 94.87084961 71.12573242 96.33984375 68.79296875 C96.86900391 67.95185547 97.39816406 67.11074219 97.94335938 66.24414062 C98.49830078 65.37982422 99.05324219 64.51550781 99.625 63.625 C100.17607422 62.74134766 100.72714844 61.85769531 101.29492188 60.94726562 C104.37087935 56.10721103 104.37087935 56.10721103 105.6875 54.4375 C106.3475 54.4375 107.0075 54.4375 107.6875 54.4375 C122.40402877 81.60970137 122.40402877 81.60970137 125.6875 94.4375 C125.87634766 95.0862207 126.06519531 95.73494141 126.25976562 96.40332031 C135.4567665 128.20337382 129.6656461 163.2302076 114.32104492 192.08642578 C110.4257216 199.0917994 105.99897265 205.41714608 100.6875 211.4375 C99.99011719 212.25476563 99.29273438 213.07203125 98.57421875 213.9140625 C80.69127812 234.43338692 58.58407278 247.7271523 32.6875 255.4375 C31.5634375 255.78039062 30.439375 256.12328125 29.28125 256.4765625 C19.63144174 259.05683732 10.62385502 259.80220195 0.625 259.75 C-0.05926056 259.74884186 -0.74352112 259.74768372 -1.44851685 259.74649048 C-14.37553329 259.70320067 -26.36649798 258.8308607 -38.5065918 254.11352539 C-40.55858406 253.34538066 -42.6198829 252.81986249 -44.75 252.3125 C-56.41784224 248.88608574 -67.76628269 241.83177341 -77.3125 234.4375 C-78.15554688 233.79683594 -78.99859375 233.15617188 -79.8671875 232.49609375 C-107.91016003 210.42749363 -124.36073252 180.87470801 -129.90625 145.66796875 C-133.76411335 111.99445116 -125.89592388 77.9770801 -104.65625 51.203125 C-77.79577575 19.50776538 -42.26739048 -0.3953283 0 0 Z " fill="#30BED1" transform="translate(512.3125,305.5625)"/>
<path d="M0 0 C-0.32613281 0.64324219 -0.65226563 1.28648437 -0.98828125 1.94921875 C-1.42527344 2.85285156 -1.86226562 3.75648438 -2.3125 4.6875 C-2.74175781 5.55761719 -3.17101562 6.42773438 -3.61328125 7.32421875 C-8.78232779 21.02583225 -8.45170342 34.47267552 -8.5 48.9375 C-8.57556858 71.53414791 -9.36867566 91.51051711 -24 110 C-24.64582031 110.83402344 -25.29164063 111.66804688 -25.95703125 112.52734375 C-35.28530557 123.75934752 -47.1629664 129.93430371 -61 134 C-61.77601563 134.24492187 -62.55203125 134.48984375 -63.3515625 134.7421875 C-79.16092275 139.06459686 -97.70666241 135.44779248 -112 128 C-115.49604593 125.85515573 -118.76208649 123.51460997 -122 121 C-122.62519531 120.53980469 -123.25039063 120.07960938 -123.89453125 119.60546875 C-135.49215516 110.52109968 -143.7559254 94.95902499 -146.56640625 80.6796875 C-148.92358402 60.67553018 -146.21143389 42.3742674 -133.79296875 26.109375 C-131.6186715 23.62663978 -129.36355626 21.30221829 -127 19 C-126.33742188 18.30519531 -125.67484375 17.61039062 -124.9921875 16.89453125 C-120.51863293 12.49752039 -115.67315327 9.512133 -110.125 6.6875 C-109.48941162 6.36185059 -108.85382324 6.03620117 -108.19897461 5.70068359 C-96.0223177 -0.18932049 -84.29382445 -0.48122525 -71.03515625 -0.546875 C-69.10988739 -0.56629473 -67.1846296 -0.58684194 -65.25938416 -0.60845947 C-61.24610466 -0.65059902 -57.23290378 -0.68334661 -53.21948242 -0.70849609 C-48.07572347 -0.74089756 -42.93231848 -0.79057657 -37.78876591 -0.84641647 C-33.82288738 -0.88868289 -29.85697407 -0.92514795 -25.89101982 -0.9595108 C-23.9935863 -0.97603056 -22.09616158 -0.99359639 -20.19874763 -1.01222992 C-17.55446039 -1.03668132 -14.91022356 -1.05410647 -12.26586914 -1.06933594 C-11.09309166 -1.08168526 -11.09309166 -1.08168526 -9.8966217 -1.09428406 C-6.41721512 -1.10732164 -3.34643569 -0.93419629 0 0 Z " fill="#88DE7E" transform="translate(590,368)"/>
<path d="M0 0 C21.78 0 43.56 0 66 0 C66.0825 7.5075 66.165 15.015 66.25 22.75 C66.28641602 25.11510742 66.32283203 27.48021484 66.36035156 29.91699219 C66.37203504 31.79361055 66.38222767 33.67023905 66.390625 35.546875 C66.41108887 36.51963379 66.43155273 37.49239258 66.45263672 38.49462891 C66.45619018 45.35636061 66.45619018 45.35636061 64.13671875 48.62890625 C61.47161065 50.33905788 59.89063369 50.41529651 56.75 50.25 C55.85796875 50.21390625 54.9659375 50.1778125 54.046875 50.140625 C53.37140625 50.09421875 52.6959375 50.0478125 52 50 C52.04640625 51.03640625 52.0928125 52.0728125 52.140625 53.140625 C52.17815275 54.51038779 52.21455184 55.88018182 52.25 57.25 C52.30027344 58.27287109 52.30027344 58.27287109 52.3515625 59.31640625 C52.41848953 62.76314817 52.24649437 64.65716831 50.2109375 67.48828125 C48 69 48 69 44.375 68.9375 C41 68 41 68 39 65 C38.85778935 62.39754502 38.81197068 59.90882316 38.875 57.3125 C38.88402344 56.61060547 38.89304687 55.90871094 38.90234375 55.18554688 C38.92586296 53.45688475 38.96173287 51.72839855 39 50 C35.04 50 31.08 50 27 50 C27.05800781 51.03640625 27.11601563 52.0728125 27.17578125 53.140625 C27.22269038 54.51037156 27.26818932 55.88016692 27.3125 57.25 C27.35439453 57.93191406 27.39628906 58.61382813 27.43945312 59.31640625 C27.53188923 63.12477392 27.3168895 64.66127441 24.67578125 67.484375 C22 69 22 69 18.875 69 C15.48374341 67.82043249 14.74430788 67.08962452 13 64 C12.70703125 60.765625 12.70703125 60.765625 12.8125 57.25 C12.83957031 56.07953125 12.86664062 54.9090625 12.89453125 53.703125 C12.92933594 52.81109375 12.96414063 51.9190625 13 51 C11.1746875 51.1546875 11.1746875 51.1546875 9.3125 51.3125 C6.08967415 51.58562083 5.07470948 51.05357162 2.390625 49.12890625 C-1.04853867 44.62764791 -0.63407542 40.96437117 -0.48828125 35.44921875 C-0.48324585 34.54997681 -0.47821045 33.65073486 -0.47302246 32.72424316 C-0.44694313 29.37833589 -0.37713572 26.03288456 -0.3125 22.6875 C-0.209375 15.200625 -0.10625 7.71375 0 0 Z " fill="#B5B5B6" transform="translate(896,920)"/>
<path d="M0 0 C5.1975 -0.061875 10.395 -0.12375 15.75 -0.1875 C17.36358398 -0.21481201 18.97716797 -0.24212402 20.63964844 -0.27026367 C31.49930908 -0.33237612 42.69490848 -0.12518234 51.375 7.2890625 C56.0548475 12.21640193 57.25007927 16.74433021 57.5 23.5 C57.25739573 30.26944171 55.98135282 34.91240743 51.24609375 39.81640625 C46.59657773 44 46.59657773 44 44 44 C44.31751221 44.45850342 44.63502441 44.91700684 44.9621582 45.3894043 C46.41386746 47.48767091 47.86320008 49.58756859 49.3125 51.6875 C50.06176758 52.7693457 50.06176758 52.7693457 50.82617188 53.87304688 C53.33970974 57.51850908 55.78263945 61.16313379 58 65 C52.68316107 66.0323304 47.18267471 67.00225831 42 65 C38.79880958 61.87724751 36.7697983 57.99348428 34.53710938 54.15478516 C31.9900544 49.88310814 31.9900544 49.88310814 28.02978516 47.09667969 C23.45801861 46.12269925 19.7950997 46.60040836 15 47 C15 52.94 15 58.88 15 65 C10.05 65 5.1 65 0 65 C0 43.55 0 22.1 0 0 Z " fill="#1A2D4D" transform="translate(662,680)"/>
<path d="M0 0 C2.25919838 -0.1165251 4.52011343 -0.20012804 6.78125 -0.26953125 C8.04001953 -0.31956299 9.29878906 -0.36959473 10.59570312 -0.42114258 C14 0 14 0 16.11962891 1.99755859 C17.66587258 4.59067542 18.84261338 7.21243812 20 10 C20.85389441 11.63618897 21.72978205 13.26104993 22.625 14.875 C23.10453125 15.76574219 23.5840625 16.65648437 24.078125 17.57421875 C28.52203383 25.49557657 33.29466239 33.23196932 38 41 C42.93288847 33.12490647 47.65078131 25.21519086 52 17 C52.79032923 15.51169998 53.58069685 14.02342034 54.37109375 12.53515625 C56.58624323 8.35967073 58.794524 4.18060229 61 0 C65.62 0 70.24 0 75 0 C75 21.45 75 42.9 75 65 C70.71 65 66.42 65 62 65 C62 52.13 62 39.26 62 26 C61.34 26 60.68 26 60 26 C59.73050537 26.71478516 59.46101074 27.42957031 59.18334961 28.16601562 C57.98674101 31.03175374 56.60127257 33.64518947 55.06640625 36.34375 C54.49986328 37.34277344 53.93332031 38.34179688 53.34960938 39.37109375 C52.46499023 40.91990234 52.46499023 40.91990234 51.5625 42.5 C50.97662109 43.53253906 50.39074219 44.56507813 49.78710938 45.62890625 C48.19864186 48.42359938 46.60834503 51.21669789 45 54 C44.52038818 54.91716797 44.04077637 55.83433594 43.54663086 56.77929688 C42 59 42 59 38.1875 59.875 C35.50725943 59.67971836 34.36553016 59.35555291 32.42578125 57.46875 C30.78008133 55.05205093 29.38897981 52.573596 28 50 C26.99422996 48.24936263 25.9883028 46.4988116 24.97851562 44.75048828 C23.98274722 43.01630062 23.0046062 41.27202701 22.02734375 39.52734375 C19.78487302 35.62570393 17.38508169 31.81613071 15 28 C14.67 40.54 14.34 53.08 14 66 C9.71 66 5.42 66 1 66 C0 65 0 65 -0.12025452 62.41209412 C-0.11803391 61.25959671 -0.11581329 60.1070993 -0.11352539 58.91967773 C-0.11344986 57.61840439 -0.11337433 56.31713104 -0.11329651 54.97642517 C-0.10818909 53.54548098 -0.10297308 52.11453718 -0.09765625 50.68359375 C-0.09579203 49.2277074 -0.09436815 47.77182043 -0.09336853 46.31593323 C-0.08954365 42.47720621 -0.07971364 38.63851681 -0.06866455 34.79980469 C-0.05844978 30.88542184 -0.05387077 26.97103294 -0.04882812 23.05664062 C-0.03809134 15.37107657 -0.02101529 7.68554355 0 0 Z " fill="#192C4C" transform="translate(287,680)"/>
<path d="M0 0 C3.69197841 1.76268555 6.65480002 3.96238605 9.875 6.5 C10.88304687 7.2940625 11.89109375 8.088125 12.9296875 8.90625 C13.51194092 9.38392822 14.09419434 9.86160645 14.6940918 10.35375977 C17.11901589 12.16899966 17.11901589 12.16899966 20.53442383 13.81616211 C29.99078068 18.94541507 29.99078068 18.94541507 31.7388916 24.23638916 C32.78376817 30.66245886 32.3221306 37.09518808 31.9375 43.5625 C31.87576468 45.5317109 31.82036808 47.50113129 31.77148438 49.47070312 C31.34647482 63.65352518 31.34647482 63.65352518 30 65 C28.14630389 65.08737645 26.28932459 65.10698153 24.43359375 65.09765625 C23.30888672 65.09443359 22.18417969 65.09121094 21.02539062 65.08789062 C19.84138672 65.07951172 18.65738281 65.07113281 17.4375 65.0625 C16.24962891 65.05798828 15.06175781 65.05347656 13.83789062 65.04882812 C10.89187774 65.03699675 7.94596319 65.02051287 5 65 C4.88372497 61.41694008 4.8127264 57.83436583 4.75 54.25 C4.69972656 52.72632813 4.69972656 52.72632813 4.6484375 51.171875 C4.54875032 43.59564957 4.54875032 43.59564957 6.953125 40.421875 C7.62859375 39.95265625 8.3040625 39.4834375 9 39 C10.42662219 36.14675563 10.31033868 34.16545451 10 31 C8.20006226 28.30009338 6.916227 26.4581135 4 25 C-0.29322859 24.51397412 -2.32082639 24.53758392 -5.9375 27 C-8.22174939 30.32254456 -8.58534422 32.0330731 -8.6640625 35.9375 C-8.11481519 38.28715921 -8.11481519 38.28715921 -5.48046875 40.04296875 C-1.72960398 44.5144721 -2.45301102 48.67394199 -2.6875 54.3125 C-2.71005859 55.33923828 -2.73261719 56.36597656 -2.75585938 57.42382812 C-2.81462425 59.9507179 -2.89672151 62.47460255 -3 65 C-7.31248609 65.02886537 -11.62494762 65.04675255 -15.9375 65.0625 C-17.16919922 65.07087891 -18.40089844 65.07925781 -19.66992188 65.08789062 C-20.83974609 65.09111328 -22.00957031 65.09433594 -23.21484375 65.09765625 C-24.84087524 65.10551147 -24.84087524 65.10551147 -26.49975586 65.11352539 C-29 65 -29 65 -30 64 C-30.46393559 58.32433492 -30.61402393 52.64897814 -30.73461914 46.95678711 C-30.78612723 45.04259154 -30.86095567 43.12886738 -30.96020508 41.21655273 C-31.81084541 24.52400422 -31.81084541 24.52400422 -27.61376953 19.703125 C-24.54245367 17.115307 -21.4495174 15.04975819 -18 13 C-16.28522706 11.74229114 -14.58097469 10.47003465 -12.890625 9.1796875 C-11.34707218 8.07347464 -9.80026518 6.97178625 -8.25 5.875 C-7.445625 5.30007813 -6.64125 4.72515625 -5.8125 4.1328125 C-3.87794501 2.75098751 -1.9405331 1.37341004 0 0 Z " fill="#1F5174" transform="translate(511,405)"/>
<path d="M0 0 C5.259375 -0.04125 10.51875 -0.0825 15.9375 -0.125 C17.578396 -0.14320801 19.21929199 -0.16141602 20.90991211 -0.18017578 C31.90585053 -0.22186527 41.83682096 0.19864812 51 7 C56.43809315 12.89126758 57.3152257 18.17605582 57.203125 25.9296875 C56.77468901 32.40566223 55.05480607 36.34038425 50.3125 40.8125 C42.98938904 47.1955843 35.24078338 47.413026 26 47.1875 C24.93910156 47.17396484 23.87820313 47.16042969 22.78515625 47.14648438 C20.18988179 47.1114131 17.59487184 47.0576164 15 47 C15 52.94 15 58.88 15 65 C10.05 65 5.1 65 0 65 C0 43.55 0 22.1 0 0 Z " fill="#192B4B" transform="translate(526,680)"/>
<path d="M0 0 C8.105625 -0.0928125 8.105625 -0.0928125 16.375 -0.1875 C18.05899902 -0.21481201 19.74299805 -0.24212402 21.47802734 -0.27026367 C33.1146388 -0.38145389 43.25048117 0.45254858 52 9 C56.46703788 14.16622642 57.22540803 20.3316792 57 27 C55.93655753 33.44200726 53.12335446 38.89064278 48 43 C38.45915508 48.9449583 25.83501246 47.80873764 15 48 C14.67 53.61 14.34 59.22 14 65 C9.38 65 4.76 65 0 65 C0 43.55 0 22.1 0 0 Z " fill="#192B4C" transform="translate(456,680)"/>
<path d="M0 0 C2.62697064 -0.22137393 5.00893964 -0.28162025 7.625 -0.1875 C8.33140625 -0.17396484 9.0378125 -0.16042969 9.765625 -0.14648438 C11.51074128 -0.1111104 13.25546608 -0.05730221 15 0 C15.43699219 0.96486328 15.43699219 0.96486328 15.8828125 1.94921875 C16.29273438 2.85285156 16.70265625 3.75648438 17.125 4.6875 C17.80755859 6.19376953 17.80755859 6.19376953 18.50390625 7.73046875 C19.49918086 9.90552057 20.50697401 12.07488864 21.52734375 14.23828125 C24.35699208 20.25038393 26.87172201 26.23910407 29.0703125 32.5078125 C30.43282309 36.16025685 32.17685099 39.56023058 34 43 C37.05879566 48.86667448 39.60579074 54.83340219 42 61 C42.66506264 62.66730738 43.33129323 64.33415083 44 66 C41.56065775 66.13501894 39.12875896 66.23403897 36.6875 66.3125 C35.99720703 66.35439453 35.30691406 66.39628906 34.59570312 66.43945312 C32.57421875 66.48828125 32.57421875 66.48828125 29 66 C27.26953125 64.04296875 27.26953125 64.04296875 26 61 C24.68 58.03 23.36 55.06 22 52 C12.1 52 2.2 52 -8 52 C-9.98 56.29 -11.96 60.58 -14 65 C-18.95 65 -23.9 65 -29 65 C-24.22733078 52.22988506 -24.22733078 52.22988506 -21 47 C-20.32427893 45.17555311 -19.65106643 43.35012787 -18.9921875 41.51953125 C-17.50321788 37.73848636 -15.72470054 34.1000491 -13.98071289 30.43115234 C-10.80454459 23.69182101 -7.90335188 16.83924348 -5.02099609 9.9699707 C-4.65699707 9.10847412 -4.29299805 8.24697754 -3.91796875 7.359375 C-3.59594482 6.59077148 -3.2739209 5.82216797 -2.94213867 5.03027344 C-2 3 -2 3 0 0 Z " fill="#192C4D" transform="translate(402,680)"/>
<path d="M0 0 C16.83 0 33.66 0 51 0 C51 3.96 51 7.92 51 12 C39.12 12 27.24 12 15 12 C15 16.95 15 21.9 15 27 C24.9 27 34.8 27 45 27 C45 30.63 45 34.26 45 38 C35.1 38 25.2 38 15 38 C15 43.28 15 48.56 15 54 C27.21 54 39.42 54 52 54 C52 57.63 52 61.26 52 65 C34.84 65 17.68 65 0 65 C0 43.55 0 22.1 0 0 Z " fill="#1A2C4C" transform="translate(596,680)"/>
<path d="M0 0 C0.66 0 1.32 0 2 0 C1.25 4.75 1.25 4.75 -1 7 C-0.92294237 9.03914437 -0.92294237 9.03914437 0 11 C1.71128376 12.18473491 3.42437228 13.36708365 5.15234375 14.52734375 C10.92490183 19.12830442 12.24892352 24.99569406 14 32 C-7.78 32 -29.56 32 -52 32 C-50.64841037 21.187283 -46.35735603 16.52763903 -38 10 C-38.309375 9.2575 -38.61875 8.515 -38.9375 7.75 C-39.8094925 5.49307824 -40.47667007 3.3549847 -41 1 C-38.00675737 2.0975223 -37.15389099 2.67682892 -35.75 5.625 C-35.5025 6.40875 -35.255 7.1925 -35 8 C-34.01 7.67386719 -33.02 7.34773437 -32 7.01171875 C-28.00244344 5.872576 -24.13567839 5.73723382 -20 5.8125 C-18.99066406 5.8134668 -18.99066406 5.8134668 -17.9609375 5.81445312 C-13.54296358 5.85283321 -9.34724921 6.29243991 -5 7 C-4.66226563 6.4946875 -4.32453125 5.989375 -3.9765625 5.46875 C-3.53054688 4.8190625 -3.08453125 4.169375 -2.625 3.5 C-2.18414063 2.8503125 -1.74328125 2.200625 -1.2890625 1.53125 C-0.86367188 1.0259375 -0.43828125 0.520625 0 0 Z " fill="#B5B5B6" transform="translate(948,884)"/>
<path d="M0 0 C3.47149863 1.59338502 6.21481109 3.87125606 9.1015625 6.32421875 C15.84047205 11.8940296 22.78132012 17.11719189 29.86572266 22.23901367 C43.23600514 31.96066054 43.23600514 31.96066054 44.0390625 35.88671875 C43.4765625 38.13671875 43.4765625 38.13671875 41.4765625 40.13671875 C35.56691436 40.0930729 32.1595243 36.99601462 27.7890625 33.44921875 C26.29826614 32.27297427 24.80601942 31.09856622 23.3125 29.92578125 C22.53229492 29.30993164 21.75208984 28.69408203 20.94824219 28.05957031 C16.66690592 24.7288903 12.28970106 21.5293833 7.9140625 18.32421875 C7.07464111 17.70780518 6.23521973 17.0913916 5.37036133 16.45629883 C3.4068132 15.01499497 1.44225218 13.57509973 -0.5234375 12.13671875 C-6.72687005 16.14618753 -12.60830914 20.42944396 -18.3984375 25.01171875 C-19.97335558 26.24035635 -21.54887484 27.46822375 -23.125 28.6953125 C-25.73748956 30.7337698 -28.33644559 32.78677756 -30.921875 34.859375 C-31.86289062 35.59027344 -32.80390625 36.32117188 -33.7734375 37.07421875 C-34.56234375 37.70199219 -35.35125 38.32976562 -36.1640625 38.9765625 C-39.29267713 40.51497069 -41.21318881 39.98341531 -44.5234375 39.13671875 C-45.3359375 36.94921875 -45.3359375 36.94921875 -45.5234375 34.13671875 C-42.30489461 30.51733169 -38.69348135 27.6087649 -34.8359375 24.69921875 C-33.69349683 23.83270797 -32.5516024 22.96547668 -31.41015625 22.09765625 C-30.79317871 21.6294043 -30.17620117 21.16115234 -29.54052734 20.67871094 C-24.95658961 17.17445643 -20.42209579 13.60550803 -15.88012695 10.04711914 C-14.44467243 8.92685406 -13.00463608 7.81242939 -11.55957031 6.70458984 C-10.2271777 5.67861558 -8.90802744 4.63515172 -7.60449219 3.57275391 C-5.07681186 1.59198658 -3.26563258 0.17693056 0 0 Z " fill="#1F4A6C" transform="translate(512.5234375,387.86328125)"/>
<path d="M0 0 C4.021875 -0.0928125 4.021875 -0.0928125 8.125 -0.1875 C8.95789551 -0.21481201 9.79079102 -0.24212402 10.64892578 -0.27026367 C16.72864311 -0.33771938 20.79952996 0.97325128 25.375 5.1875 C27.53568964 8.92715514 27.69348508 11.77915872 27 16 C25.64805213 19.37986968 24.52780769 20.6611605 21.46875 22.625 C17.02712883 24.38564263 13.34034789 24.33300364 8.625 24.1875 C4.355625 24.0946875 4.355625 24.0946875 0 24 C0 16.08 0 8.16 0 0 Z " fill="#2492BE" transform="translate(471,692)"/>
<path d="M0 0 C2.495625 -0.061875 4.99125 -0.12375 7.5625 -0.1875 C8.33408447 -0.21481201 9.10566895 -0.24212402 9.90063477 -0.27026367 C16.07590524 -0.3434509 20.72570141 0.9589628 25.4375 5.1875 C27.51984005 8.93571209 27.68055476 11.80608129 27 16 C25.58884086 19.73542126 24.47851229 20.74609552 20.9375 22.625 C16.63901029 24.38258736 12.64319972 24.33936868 8.0625 24.1875 C4.0715625 24.0946875 4.0715625 24.0946875 0 24 C0 16.08 0 8.16 0 0 Z " fill="#2492BE" transform="translate(541,692)"/>
<path d="M0 0 C2.660625 -0.061875 5.32125 -0.12375 8.0625 -0.1875 C8.8862915 -0.21481201 9.71008301 -0.24212402 10.55883789 -0.27026367 C16.511982 -0.33656021 21.24378484 0.68833567 25.9375 4.625 C27.61796543 8.38133449 27.52694018 11.95771917 27 16 C25.74459707 19.10547041 24.91512326 20.48703052 22 22.12109375 C17.70901669 23.37821777 13.62998411 23.21046875 9.1875 23.125 C6.155625 23.08375 3.12375 23.0425 0 23 C0 15.41 0 7.82 0 0 Z " fill="#2493BE" transform="translate(677,692)"/>
<path d="M0 0 C2.99034259 0.53672816 3.68404677 0.96877735 5.4375 3.4375 C5.74777953 5.98872893 5.88184354 8.29167955 5.87109375 10.84375 C5.8763356 11.56485962 5.88157745 12.28596924 5.88697815 13.02893066 C5.8933953 14.55198886 5.89206524 16.07509664 5.88354492 17.59814453 C5.87502883 19.92960682 5.90380448 22.25862325 5.93554688 24.58984375 C5.93715887 26.07031177 5.93658139 27.55078412 5.93359375 29.03125 C5.95044472 30.07665955 5.95044472 30.07665955 5.96763611 31.14318848 C5.9210695 34.37360637 5.83512378 36.01865371 3.56665039 38.40820312 C1.4375 39.4375 1.4375 39.4375 -1.125 39.3125 C-3.86666049 38.32831418 -4.84937337 37.77856011 -6.5625 35.4375 C-6.96655273 32.31469727 -6.96655273 32.31469727 -6.99609375 28.50390625 C-7.0013356 27.82956039 -7.00657745 27.15521454 -7.01197815 26.46043396 C-7.01839439 25.03572973 -7.01706639 23.61097249 -7.00854492 22.1862793 C-7.0000414 20.01059178 -7.02878342 17.83753697 -7.06054688 15.66210938 C-7.06215927 14.27604245 -7.06158062 12.88997089 -7.05859375 11.50390625 C-7.06137329 9.6158728 -7.06137329 9.6158728 -7.06420898 7.68969727 C-6.36652058 3.1671147 -4.60034485 0.78542473 0 0 Z " fill="#B1B1B1" transform="translate(971.5625,918.5625)"/>
<path d="M0 0 C2.74278566 0.98458973 3.72653619 1.53041352 5.4375 3.875 C5.82568359 7.01367188 5.82568359 7.01367188 5.8359375 10.84375 C5.84024277 11.85882629 5.84024277 11.85882629 5.84463501 12.89440918 C5.84667397 14.32333209 5.84115569 15.75228302 5.82861328 17.18115234 C5.81255511 19.36749725 5.82846534 21.55199379 5.84765625 23.73828125 C5.84567379 25.12760824 5.84183004 26.51693409 5.8359375 27.90625 C5.83255371 29.17017578 5.82916992 30.43410156 5.82568359 31.73632812 C5.4375 34.875 5.4375 34.875 4.10009766 36.78320312 C1.45842418 38.51794083 -0.49627043 38.32215848 -3.5625 37.875 C-6.04560606 35.50361728 -6.54003178 34.05584544 -6.96655273 30.62280273 C-6.98117554 28.73476929 -6.98117554 28.73476929 -6.99609375 26.80859375 C-7.0013356 26.13329117 -7.00657745 25.45798859 -7.01197815 24.76222229 C-7.01838332 23.33929822 -7.01708079 21.91632109 -7.00854492 20.4934082 C-7.0000122 18.31561468 -7.02884592 16.14042663 -7.06054688 13.96289062 C-7.06215852 12.57812578 -7.06158205 11.1933563 -7.05859375 9.80859375 C-7.06044678 8.55103271 -7.0622998 7.29347168 -7.06420898 5.99780273 C-6.5625 2.875 -6.5625 2.875 -4.69165039 0.93383789 C-2.5625 -0.125 -2.5625 -0.125 0 0 Z " fill="#B1B2B3" transform="translate(886.5625,919.125)"/>
<path d="M0 0 C2.6306216 3.94593239 4.29112953 8.13888754 6.125 12.5 C6.49753906 13.36753906 6.87007813 14.23507812 7.25390625 15.12890625 C7.60582031 15.96292969 7.95773437 16.79695312 8.3203125 17.65625 C8.64273926 18.41744141 8.96516602 19.17863281 9.29736328 19.96289062 C10 22 10 22 10 25 C3.4 25 -3.2 25 -10 25 C-7.03366212 16.43999639 -3.92230385 8.1784208 0 0 Z " fill="#2395C0" transform="translate(409,695)"/>
<path d="M0 0 C0.33 0 0.66 0 1 0 C1.10140493 6.4777286 1.17146717 12.95525261 1.21972656 19.43359375 C1.23984419 21.6374476 1.26714172 23.84124807 1.30175781 26.04492188 C1.35026833 29.21237356 1.37296736 32.37911968 1.390625 35.546875 C1.41127014 36.53242371 1.43191528 37.51797241 1.45318604 38.53338623 C1.45542544 45.35743958 1.45542544 45.35743958 -0.86328125 48.62890625 C-3.52838935 50.33905788 -5.10936631 50.41529651 -8.25 50.25 C-9.8175 50.1675 -11.385 50.085 -13 50 C-13 54.95 -13 59.9 -13 65 C-13.33 65 -13.66 65 -14 65 C-14.07347656 63.39318359 -14.07347656 63.39318359 -14.1484375 61.75390625 C-14.22345294 60.35674361 -14.2990013 58.9596095 -14.375 57.5625 C-14.4059375 56.85544922 -14.436875 56.14839844 -14.46875 55.41992188 C-14.57280629 53.60760812 -14.77919892 51.80182012 -15 50 C-15.66 49.67 -16.32 49.34 -17 49 C-17 48.34 -17 47.68 -17 47 C-16.18015625 46.61328125 -15.3603125 46.2265625 -14.515625 45.828125 C-12.89914062 45.04695312 -12.89914062 45.04695312 -11.25 44.25 C-10.18265625 43.73953125 -9.1153125 43.2290625 -8.015625 42.703125 C-4.92013171 40.95489304 -3.15154567 39.81950177 -1 37 C-0.58219569 34.0529474 -0.39521882 31.46448237 -0.390625 28.515625 C-0.37408875 27.70003113 -0.35755249 26.88443726 -0.34051514 26.04412842 C-0.29203417 23.44600903 -0.27066477 20.84847491 -0.25 18.25 C-0.22184028 16.48564764 -0.19191284 14.72132254 -0.16015625 12.95703125 C-0.08627558 8.63806903 -0.03670188 4.31943171 0 0 Z " fill="#D4D4D4" transform="translate(961,920)"/>
<path d="M0 0 C0.66 0.33 1.32 0.66 2 1 C1.46890625 1.83402344 0.9378125 2.66804687 0.390625 3.52734375 C-3.58542514 9.83333858 -7.24126242 16.05639779 -10 23 C-10.38671875 23.86882812 -10.7734375 24.73765625 -11.171875 25.6328125 C-15.69943624 36.3368616 -17.7371534 47.6450212 -20 59 C-20.33 59 -20.66 59 -21 59 C-22.16226921 39.54275251 -12.29236625 15.14107335 0 0 Z " fill="#253250" transform="translate(112,163)"/>
<path d="M0 0 C0.33 0 0.66 0 1 0 C1.33 6.93 1.66 13.86 2 21 C2.66 21 3.32 21 4 21 C5.98 25.29 7.96 29.58 10 34 C5 35 5 35 2.21801758 33.51074219 C-0.74869021 30.15250081 -0.57920138 28.26502755 -0.48828125 23.828125 C-0.48120651 23.1457074 -0.47413177 22.46328979 -0.46684265 21.76019287 C-0.43894021 19.58899439 -0.37622253 17.42041332 -0.3125 15.25 C-0.28741117 13.77477694 -0.264599 12.29951329 -0.24414062 10.82421875 C-0.18913137 7.21530096 -0.10289307 3.60790609 0 0 Z " fill="#D4D5D5" transform="translate(965,923)"/>
<path d="M0 0 C0.79921875 0.00902344 1.5984375 0.01804687 2.421875 0.02734375 C3.02515625 0.03894531 3.6284375 0.05054687 4.25 0.0625 C4.25 0.3925 4.25 0.7225 4.25 1.0625 C3.70287354 1.17730713 3.15574707 1.29211426 2.59204102 1.41040039 C-12.29593671 4.59257544 -27.27056606 8.24746701 -40.04296875 16.92578125 C-43.13773373 18.98659729 -46.35819734 20.54203674 -49.75 22.0625 C-50.41 21.7325 -51.07 21.4025 -51.75 21.0625 C-38.01246093 10.98830468 -17.4365465 -0.2564198 0 0 Z " fill="#2C324D" transform="translate(198.75,106.9375)"/>
<path d="M0 0 C1.32 0.33 2.64 0.66 4 1 C3.34 1.66 2.68 2.32 2 3 C2 6.63 2 10.26 2 14 C13.55 14 25.1 14 37 14 C37 14.33 37 14.66 37 15 C24.79 15 12.58 15 0 15 C0 10.05 0 5.1 0 0 Z " fill="#248EB7" transform="translate(611,719)"/>
<path d="M0 0 C2.0625 0.4375 2.0625 0.4375 4 1 C4.33 2.32 4.66 3.64 5 5 C3.125 6.0625 3.125 6.0625 1 7 C0.34 6.67 -0.32 6.34 -1 6 C-1.042721 4.33388095 -1.04063832 2.66617115 -1 1 C-0.67 0.67 -0.34 0.34 0 0 Z " fill="#F4F3F5" transform="translate(912,901)"/>
<path d="M0 0 C2.0625 0.4375 2.0625 0.4375 4 1 C4.33 2.32 4.66 3.64 5 5 C3.35 5.33 1.7 5.66 0 6 C-0.38218767 4.34385343 -0.71395102 2.67542976 -1 1 C-0.67 0.67 -0.34 0.34 0 0 Z " fill="#F3F3F3" transform="translate(942,901)"/>
<path d="M0 0 C1.875 0.6875 1.875 0.6875 4 2 C4.68753301 3.65816784 5.35561283 5.32459336 6 7 C6.99 7.33 7.98 7.66 9 8 C7.02 8.66 5.04 9.32 3 10 C2.87625 9.278125 2.7525 8.55625 2.625 7.8125 C2.0095069 5.04278106 1.11555626 2.6029646 0 0 Z " fill="#BDBEBE" transform="translate(907,885)"/>
<path d="M0 0 C-4.38544451 3.06981116 -8.94775857 6.14523569 -14 8 C-14.66 7.67 -15.32 7.34 -16 7 C-14.58531689 6.03874097 -13.1681636 5.08111675 -11.75 4.125 C-10.96109375 3.59132813 -10.1721875 3.05765625 -9.359375 2.5078125 C-3.57207719 -1.1906924 -3.57207719 -1.1906924 0 0 Z " fill="#1D2443" transform="translate(163,121)"/>
<path d="M0 0 C0.66 0 1.32 0 2 0 C2 0.66 2 1.32 2 2 C2.66 2.33 3.32 2.66 4 3 C-0.75 7 -0.75 7 -3 7 C-1.125 1.125 -1.125 1.125 0 0 Z " fill="#8AE287" transform="translate(498,409)"/>
<path d="M0 0 C1.32 0.33 2.64 0.66 4 1 C3.34 1.66 2.68 2.32 2 3 C1.6936141 5.73434962 1.4886664 8.38279821 1.375 11.125 C1.33632813 11.87910156 1.29765625 12.63320313 1.2578125 13.41015625 C1.16348969 15.27303184 1.08065338 17.13648255 1 19 C0.67 19 0.34 19 0 19 C0 12.73 0 6.46 0 0 Z " fill="#2592BA" transform="translate(677,727)"/>
<path d="M0 0 C0.33 0 0.66 0 1 0 C0.03644647 10.55808656 0.03644647 10.55808656 -1 15 C-1.33 15 -1.66 15 -2 15 C-2.3690205 4.44191344 -2.3690205 4.44191344 0 0 Z " fill="#1A2C47" transform="translate(93,207)"/>
<path d="M0 0 C0.93423645 3.01031744 1.04449911 3.86650268 0 7 C1.98 7 3.96 7 6 7 C5.67 7.66 5.34 8.32 5 9 C2.03 8.505 2.03 8.505 -1 8 C-1.625 5.6875 -1.625 5.6875 -2 3 C-1.34 2.01 -0.68 1.02 0 0 Z " fill="#285D73" transform="translate(469,419)"/>
<path d="M0 0 C0.66 0.33 1.32 0.66 2 1 C-0.75 7.75 -0.75 7.75 -3 10 C-2.49287967 6.28111761 -1.88391785 3.26545761 0 0 Z " fill="#1E2A49" transform="translate(103,178)"/>
<path d="M0 0 C1.32 1.32 2.64 2.64 4 4 C3.67 4.66 3.34 5.32 3 6 C2.34 5.67 1.68 5.34 1 5 C0.67 5.99 0.34 6.98 0 8 C0 5.36 0 2.72 0 0 Z " fill="#2495BF" transform="translate(302,709)"/>
</svg>
